<svg width="30" height="30" viewBox="0 0 30 30" fill="none" xmlns="http://www.w3.org/2000/svg">
<path fill-rule="evenodd" clip-rule="evenodd" d="M21.7071 7.70712C21.5196 7.89466 21.2652 8 21 8H9C8.73478 8 8.48044 7.89466 8.29291 7.70712C8.10537 7.51959 8 7.26522 8 7C8 6.73478 8.10537 6.48044 8.29291 6.29291C8.48044 6.10537 8.73478 6 9 6H14V4C14 3.73478 14.1054 3.48044 14.2929 3.29291C14.4804 3.10537 14.7348 3 15 3C15.2652 3 15.5196 3.10537 15.7071 3.29291C15.8946 3.48044 16 3.73478 16 4V6H21C21.2652 6 21.5196 6.10537 21.7071 6.29291C21.8946 6.48044 22 6.73478 22 7C22 7.26522 21.8946 7.51959 21.7071 7.70712ZM19.1574 11.2222C19.7068 12.0444 20 13.0111 20 14C20 15.3261 19.4732 16.5979 18.5355 17.5356C17.5978 18.4732 16.3261 19 15 19C14.0111 19 13.0444 18.7068 12.2222 18.1574C11.3999 17.6079 10.7591 16.8271 10.3806 15.9134C10.0022 14.9998 9.90315 13.9945 10.0961 13.0246C10.289 12.0547 10.7652 11.1637 11.4645 10.4645C12.1637 9.76522 13.0546 9.289 14.0245 9.09607C14.9944 8.90315 15.9998 9.00218 16.9134 9.38062C17.827 9.75906 18.6079 10.3999 19.1574 11.2222ZM13.3333 16.4944C13.8267 16.8241 14.4067 17 15 17C15.7957 17 16.5587 16.6839 17.1213 16.1213C17.6839 15.5587 18 14.7957 18 14C18 13.4067 17.824 12.8266 17.4944 12.3333C17.1647 11.8399 16.6963 11.4554 16.1481 11.2284C15.5999 11.0013 14.9967 10.9419 14.4147 11.0576C13.8328 11.1734 13.2982 11.4591 12.8787 11.8787C12.4591 12.2983 12.1734 12.8328 12.0576 13.4147C11.9419 13.9967 12.0013 14.5999 12.2284 15.1481C12.4555 15.6963 12.84 16.1648 13.3333 16.4944ZM21 24H10V22C10 21.7348 9.89463 21.4804 9.70709 21.2929C9.51956 21.1054 9.26522 21 9 21C8.73478 21 8.48044 21.1054 8.29291 21.2929C8.10537 21.4804 8 21.7348 8 22V25C8 25.2652 8.10537 25.5196 8.29291 25.7071C8.48044 25.8947 8.73478 26 9 26H21C21.2652 26 21.5196 25.8947 21.7071 25.7071C21.8946 25.5196 22 25.2652 22 25C22 24.7348 21.8946 24.4804 21.7071 24.2929C21.5196 24.1054 21.2652 24 21 24ZM16.5 21.5C16.5 22.3284 15.8284 23 15 23C14.1716 23 13.5 22.3284 13.5 21.5C13.5 20.6716 14.1716 20 15 20C15.8284 20 16.5 20.6716 16.5 21.5Z" fill="#121211"/>
</svg>
