<svg width="30" height="30" viewBox="0 0 30 30" fill="none" xmlns="http://www.w3.org/2000/svg">
<path fill-rule="evenodd" clip-rule="evenodd" d="M9.00516 5.89776C9.05637 5.3935 9.48223 5 10 5H11H15C16.5913 5 18.1174 5.63214 19.2426 6.75736C20.3679 7.88258 21 9.4087 21 11C21 12.5913 20.3679 14.1174 19.2426 15.2426C18.1174 16.3679 16.5913 17 15 17H11V24C11 24.5523 10.5523 25 10 25C9.44772 25 9 24.5523 9 24V17V6C9 5.96548 9.00175 5.93137 9.00516 5.89776ZM11 15H15C16.0609 15 17.0783 14.5786 17.8284 13.8284C18.5786 13.0783 19 12.0609 19 11C19 9.93913 18.5786 8.92172 17.8284 8.17157C17.0783 7.42143 16.0609 7 15 7H11V15Z" fill="#121211"/>
</svg>
