<svg width="30" height="30" viewBox="0 0 30 30" fill="none" xmlns="http://www.w3.org/2000/svg">
<path fill-rule="evenodd" clip-rule="evenodd" d="M26 8C26 8.55228 25.5523 9 25 9H5C4.44772 9 4 8.55228 4 8C4 7.44772 4.44772 7 5 7H25C25.5523 7 26 7.44772 26 8ZM26 15C26 15.5523 25.5523 16 25 16H5C4.44772 16 4 15.5523 4 15C4 14.4477 4.44772 14 5 14H25C25.5523 14 26 14.4477 26 15ZM18.2353 22C18.2353 22.5523 17.7876 23 17.2353 23H5C4.44772 23 4 22.5523 4 22C4 21.4477 4.44772 21 5 21H17.2353C17.7876 21 18.2353 21.4477 18.2353 22Z" fill="#121211"/>
</svg>
