<svg width="13" height="13" viewBox="0 0 13 13" fill="none" xmlns="http://www.w3.org/2000/svg">
<path fill-rule="evenodd" clip-rule="evenodd" d="M7.20564 6.49854L10.3875 9.68041C10.5828 9.87567 10.5828 10.1922 10.3875 10.3875C10.1922 10.5828 9.87567 10.5828 9.6804 10.3875L6.49853 7.20564L3.31667 10.3875C3.1214 10.5828 2.80482 10.5828 2.60956 10.3875C2.4143 10.1922 2.4143 9.87567 2.60956 9.68041L5.79143 6.49854L2.60934 3.31644C2.41408 3.12118 2.41408 2.8046 2.60934 2.60934C2.8046 2.41408 3.12118 2.41408 3.31644 2.60934L6.49854 5.79143L9.68063 2.60934C9.87589 2.41408 10.1925 2.41408 10.3877 2.60934C10.583 2.8046 10.583 3.12118 10.3877 3.31644L7.20564 6.49854Z" fill="#121211"/>
</svg>
