<svg width="30" height="30" viewBox="0 0 30 30" fill="none" xmlns="http://www.w3.org/2000/svg">
<path d="M9.80507 24.0105H9.78207C9.57003 24.0067 9.36468 23.9356 9.19572 23.8074C9.02675 23.6793 8.9029 23.5007 8.84207 23.2976L4.04207 7.29755C3.96595 7.04347 3.99388 6.76956 4.11972 6.53608C4.24556 6.30259 4.45899 6.12866 4.71307 6.05255C4.96715 5.97643 5.24105 6.00436 5.47454 6.1302C5.70802 6.25604 5.88195 6.46947 5.95807 6.72355L9.85307 19.7235L14.2681 6.69155C14.3328 6.49017 14.4611 6.31519 14.6336 6.19278C14.8061 6.07038 15.0136 6.00715 15.2251 6.01255C15.4362 6.01465 15.6412 6.0835 15.8107 6.20924C15.9803 6.33498 16.1057 6.51117 16.1691 6.71255L20.2431 19.5945L24.0431 6.73155C24.0787 6.60382 24.1393 6.48444 24.2215 6.38037C24.3036 6.27629 24.4057 6.1896 24.5217 6.12532C24.6376 6.06105 24.7652 6.02049 24.897 6.00599C25.0288 5.9915 25.1622 6.00336 25.2894 6.04089C25.4166 6.07842 25.535 6.14087 25.6378 6.2246C25.7406 6.30833 25.8258 6.41167 25.8883 6.52861C25.9508 6.64556 25.9894 6.77377 26.0019 6.90577C26.0144 7.03778 26.0005 7.17096 25.9611 7.29755L21.2361 23.2976C21.1755 23.5029 21.0506 23.6834 20.8798 23.8125C20.7089 23.9415 20.5012 24.0124 20.2871 24.0145H20.2771C20.0643 24.0146 19.857 23.9467 19.6854 23.8208C19.5138 23.6949 19.3869 23.5176 19.3231 23.3145L15.1831 10.2255L10.7431 23.3335C10.6761 23.5297 10.5499 23.7002 10.3819 23.8214C10.2139 23.9427 10.0123 24.0088 9.80507 24.0105Z" fill="#121211"/>
</svg>
