<svg width="30" height="30" viewBox="0 0 30 30" fill="none" xmlns="http://www.w3.org/2000/svg">
<path fill-rule="evenodd" clip-rule="evenodd" d="M24.4017 20.7135C25.4158 19.0482 26 17.0923 26 15C26 12.8148 25.3628 10.7785 24.2642 9.06663C23.6774 9.48328 23.0147 9.86002 22.2889 10.1891C22.6792 11.67 22.8948 13.2951 22.8948 15C22.8948 16.5958 22.7059 18.1217 22.3617 19.5248C23.116 19.8722 23.8009 20.2714 24.4017 20.7135ZM23.5364 21.9382C23.3112 21.7717 23.067 21.6087 22.8031 21.4501C22.5296 21.2857 22.2394 21.1291 21.9339 20.9815C21.4099 22.5012 20.6924 23.8296 19.8338 24.8838C21.2726 24.1788 22.5349 23.1688 23.5364 21.9382ZM20.9532 18.9647C21.2365 17.7416 21.3948 16.4067 21.3948 15C21.3948 13.4792 21.2098 12.0424 20.8819 10.7401C19.3452 11.255 17.604 11.5759 15.75 11.6476V18.0331C17.6328 18.1059 19.3992 18.4357 20.9532 18.9647ZM15.75 19.5343C17.5116 19.6077 19.1388 19.9231 20.5439 20.4101C20.2117 21.3928 19.7944 22.2775 19.3142 23.0378C18.2591 24.7085 16.9988 25.6507 15.75 25.9192V19.5343ZM14.25 18.0298V11.6509C12.3958 11.5873 10.6525 11.2745 9.11133 10.7675C8.78768 12.0625 8.60531 13.4899 8.60531 15C8.60531 16.396 8.76116 17.7213 9.0404 18.9367C10.5989 18.4158 12.3673 18.0944 14.25 18.0298ZM9.44688 20.3827C10.8575 19.9031 12.4875 19.5959 14.25 19.5307V25.9192C13.0012 25.6506 11.741 24.7085 10.6859 23.0378C10.2012 22.2705 9.78061 21.3763 9.44688 20.3827ZM7.62947 19.4881C7.29089 18.0951 7.10531 16.5819 7.10531 15C7.10531 13.3089 7.31741 11.6962 7.70179 10.225C6.97006 9.89881 6.30121 9.52453 5.70818 9.10994C4.62648 10.8128 4 12.8332 4 15C4 17.0734 4.57368 19.0129 5.57097 20.6683C6.17818 20.2286 6.86927 19.8322 7.62947 19.4881ZM6.4304 21.8971C6.6399 21.7449 6.86551 21.5957 7.10761 21.4501C7.40392 21.272 7.71979 21.1031 8.05356 20.9448C8.57868 22.4798 9.30083 23.8212 10.1663 24.8838C8.71147 24.171 7.43714 23.1464 6.4304 21.8971ZM19.8338 5.11624C21.1941 5.78278 22.3966 6.72188 23.3701 7.86235C23.1923 7.98734 23.0034 8.1102 22.8032 8.23055C22.5009 8.4123 22.1782 8.58441 21.8369 8.74546C21.3228 7.33949 20.6406 6.10679 19.8338 5.11624ZM19.3142 6.96215C19.7475 7.64818 20.1296 8.43556 20.4442 9.30472C19.0619 9.77231 17.4701 10.0747 15.75 10.1464V4.08076C16.9988 4.34933 18.2591 5.29149 19.3142 6.96215ZM14.25 4.08077V10.1499C12.5288 10.0863 10.9339 9.79175 9.5463 9.33138C9.8627 8.45165 10.2481 7.65519 10.6859 6.96215C11.741 5.29152 13.0012 4.34937 14.25 4.08077ZM10.1663 5.11618C9.35273 6.1151 8.66581 7.36028 8.15016 8.7811C7.78063 8.60988 7.43241 8.42578 7.10768 8.23055C6.92838 8.12275 6.75812 8.01292 6.59675 7.90137C7.57606 6.74325 8.79046 5.7903 10.1663 5.11618ZM15 2.5C21.9036 2.50001 27.5 8.09645 27.5 15C27.5 21.9036 21.9036 27.5 15 27.5C8.09644 27.5 2.5 21.9036 2.5 15C2.5 8.09644 8.09644 2.5 15 2.5H15Z" fill="#121211"/>
</svg>
