<svg width="30" height="30" viewBox="0 0 30 30" fill="none" xmlns="http://www.w3.org/2000/svg">
<path d="M15.53 22.8488C15.0664 23.3164 14.5151 23.6879 13.9076 23.9419C13.3001 24.1959 12.6484 24.3273 11.99 24.3288C11.3315 24.3302 10.6793 24.2016 10.0707 23.9503C9.46205 23.699 8.90908 23.3299 8.44348 22.8643C7.97789 22.3987 7.60884 21.8458 7.35753 21.2372C7.10621 20.6285 6.97759 19.9763 6.97903 19.3178C6.98047 18.6594 7.11195 18.0077 7.36593 17.4002C7.6199 16.7927 7.99137 16.2414 8.459 15.7778L18.359 5.87781C18.6376 5.59921 18.9683 5.37821 19.3324 5.22743C19.6964 5.07666 20.0865 4.99905 20.4805 4.99905C20.8745 4.99905 21.2646 5.07666 21.6286 5.22743C21.9927 5.37821 22.3234 5.59921 22.602 5.87781C22.8806 6.15641 23.1016 6.48716 23.2524 6.85117C23.4032 7.21517 23.4808 7.60531 23.4808 7.99931C23.4808 8.39331 23.4032 8.78345 23.2524 9.14746C23.1016 9.51147 22.8806 9.8422 22.602 10.1208L14.117 18.6068C13.9263 18.7887 13.673 18.8901 13.4095 18.8901C13.146 18.8901 12.8927 18.7887 12.702 18.6068C12.5145 18.4193 12.4092 18.165 12.4092 17.8998C12.4092 17.6346 12.5145 17.3803 12.702 17.1928L19.7731 10.1208C20.1635 9.73033 20.1635 9.0973 19.773 8.70685C19.3826 8.31636 18.7495 8.31638 18.359 8.70689L11.289 15.7778C10.7272 16.3403 10.4116 17.1028 10.4116 17.8978C10.4116 18.6928 10.7272 19.4553 11.289 20.0178L11.294 20.0228C11.8565 20.5846 12.619 20.9002 13.414 20.9002C14.209 20.9002 14.9715 20.5846 15.534 20.0228L23.313 12.2438L24.02 11.5368C24.9579 10.5993 25.485 9.32754 25.4853 8.00137C25.4856 6.67521 24.959 5.40324 24.0215 4.4653C23.084 3.52736 21.8122 3.00028 20.4861 3C19.1599 2.99972 17.8879 3.52627 16.95 4.46381L7.05 14.3638C6.88276 14.5309 6.72422 14.7064 6.575 14.8898C6.543 14.9288 6.515 14.9708 6.485 15.0108C6.371 15.1568 6.259 15.3028 6.158 15.4548C6.136 15.4888 6.119 15.5238 6.098 15.5548C5.998 15.7178 5.893 15.8818 5.804 16.0548C5.792 16.0778 5.784 16.0998 5.772 16.1218C5.678 16.3048 5.59 16.4908 5.514 16.6788C5.509 16.6898 5.506 16.7018 5.501 16.7128C5.422 16.9128 5.35 17.1128 5.289 17.3198C5.289 17.3358 5.282 17.3538 5.277 17.3708C5.219 17.5708 5.169 17.7708 5.13 17.9708C5.119 18.0268 5.114 18.0828 5.105 18.1398C5.077 18.3038 5.049 18.4688 5.033 18.6398C5.012 18.8648 5 19.0898 5 19.3188C5 19.5478 5.012 19.7728 5.033 19.9968C5.05 20.1658 5.078 20.3348 5.106 20.5038C5.115 20.5558 5.119 20.6038 5.129 20.6608C5.169 20.8608 5.22 21.0668 5.278 21.2668L5.289 21.3138C5.349 21.5138 5.421 21.7138 5.5 21.9138C5.5 21.9258 5.509 21.9398 5.514 21.9528C5.589 22.1358 5.675 22.3168 5.765 22.4948C5.78 22.5218 5.79 22.5498 5.805 22.5768C5.888 22.7358 5.983 22.8898 6.08 23.0428C6.108 23.0868 6.131 23.1318 6.16 23.1748C6.248 23.3088 6.348 23.4378 6.447 23.5658C6.491 23.6238 6.531 23.6848 6.577 23.7418C6.685 23.8738 6.806 23.9998 6.925 24.1258C6.968 24.1718 7.006 24.2258 7.051 24.2648C7.096 24.3038 7.151 24.3508 7.195 24.3958C7.319 24.5138 7.443 24.6308 7.574 24.7388C7.633 24.7868 7.697 24.8288 7.758 24.8748C7.884 24.9748 8.009 25.0688 8.139 25.1558C8.186 25.1868 8.239 25.2118 8.284 25.2428C8.433 25.3358 8.584 25.4288 8.738 25.5108C8.768 25.5268 8.8 25.5388 8.83 25.5538C9.006 25.6428 9.182 25.7278 9.363 25.8008C9.378 25.8078 9.394 25.8118 9.41 25.8178C9.61 25.8958 9.804 25.9668 10.01 26.0268L10.049 26.0368C10.249 26.0948 10.457 26.1458 10.664 26.1858C10.706 26.1948 10.748 26.1978 10.79 26.2048C10.969 26.2368 11.149 26.2648 11.329 26.2828C11.491 26.2978 11.655 26.3018 11.818 26.3068C11.945 26.3068 12.071 26.3068 12.198 26.3068C12.359 26.3068 12.521 26.2988 12.681 26.2838C12.863 26.2658 13.044 26.2368 13.225 26.2058C13.265 26.1988 13.307 26.1948 13.346 26.1868C13.555 26.1468 13.762 26.0948 13.966 26.0358L14 26.0278C14.2 25.9668 14.4 25.8958 14.6 25.8168L14.641 25.8018C14.824 25.7278 15.003 25.6428 15.18 25.5518C15.208 25.5388 15.238 25.5268 15.266 25.5118C15.423 25.4288 15.576 25.3338 15.728 25.2388C15.773 25.2098 15.82 25.1858 15.865 25.1568C15.999 25.0678 16.129 24.9668 16.258 24.8678C16.315 24.8238 16.374 24.7858 16.43 24.7398C16.572 24.6228 16.708 24.4958 16.843 24.3668C16.879 24.3318 16.918 24.3008 16.954 24.2668L24.7319 16.4889C25.1224 16.0984 25.1222 15.465 24.7317 15.0745C24.3414 14.6842 23.7085 14.6838 23.3179 15.0738L15.53 22.8488Z" fill="#121211"/>
</svg>
