<svg width="30" height="30" viewBox="0 0 30 30" fill="none" xmlns="http://www.w3.org/2000/svg">
<path d="M24.9601 26.1003C24.5743 26.0954 24.1922 26.0233 23.8311 25.8873C22.2211 25.3013 20.2741 23.3233 18.4611 20.7873C16.2812 20.6355 14.0925 20.6629 11.9171 20.8693C10.1231 23.3263 8.22812 25.2333 6.68712 25.7943C6.09631 26.062 5.42509 26.0919 4.81282 25.8778C4.20055 25.6636 3.69428 25.2219 3.39912 24.6443C3.0466 24.0891 2.92111 23.4196 3.04862 22.7743C3.17614 22.1291 3.54689 21.5577 4.08412 21.1783C5.36312 20.1033 7.89212 19.3783 10.8301 19.0053C12.1087 17.1327 13.2334 15.1596 14.1931 13.1053C13.0821 10.4123 12.4721 7.90531 12.7591 6.27331C12.8156 5.6362 13.1148 5.04517 13.5948 4.62247C14.0749 4.19977 14.699 3.97775 15.3381 4.00231C15.9704 3.97494 16.589 4.1917 17.0658 4.60772C17.5427 5.02375 17.8414 5.60719 17.9001 6.23731C18.1791 7.82031 17.5301 10.3373 16.3741 13.0453C17.2984 15.0838 18.3849 17.0448 19.6231 18.9093C22.6791 19.2273 25.3231 19.9283 26.6231 21.0203C27.1779 21.4236 27.5564 22.0248 27.6801 22.6994C27.8039 23.374 27.6636 24.0703 27.2881 24.6443C27.0714 25.0767 26.7398 25.441 26.3297 25.6973C25.9195 25.9536 25.4467 26.092 24.9631 26.0973L24.9601 26.1003ZM21.2241 21.1093C22.0718 22.3267 23.2007 23.3216 24.5151 24.0093C24.6047 24.0643 24.7054 24.0988 24.8098 24.1101C24.9143 24.1215 25.0201 24.1096 25.1194 24.0751C25.2187 24.0407 25.3091 23.9846 25.3841 23.911C25.4591 23.8373 25.5168 23.748 25.5531 23.6493C25.7871 23.2423 25.8181 22.9623 25.3351 22.5573C24.0996 21.7542 22.6902 21.2578 21.2241 21.1093ZM9.11712 21.2783C7.7754 21.4648 6.4937 21.9541 5.36912 22.7093C4.88312 23.1173 4.96312 23.3533 5.13012 23.6443C5.32412 23.9803 5.49512 24.1003 6.00212 23.9153C7.23212 23.2902 8.2986 22.3857 9.11612 21.2743L9.11712 21.2783ZM15.2501 15.4233C14.6671 16.5613 14.0201 17.6963 13.3351 18.7773C14.5791 18.7073 15.8511 18.6923 17.0961 18.7363C16.4341 17.6673 15.8101 16.5473 15.2501 15.4233ZM15.3381 6.00231C15.0711 6.00231 14.8381 6.00231 14.7321 6.62131C14.6448 7.89252 14.8437 9.16713 15.3141 10.3513C15.8028 9.15905 16.0135 7.87113 15.9301 6.58531C15.8351 6.04131 15.6431 6.00231 15.3381 6.00231Z" fill="#121211"/>
</svg>
