<svg width="30" height="30" viewBox="0 0 30 30" fill="none" xmlns="http://www.w3.org/2000/svg">
<path fill-rule="evenodd" clip-rule="evenodd" d="M6 6H24V21.4434L18.7071 16.1505C18.3166 15.7599 17.6834 15.7599 17.2929 16.1505L16 17.4434L12.7071 14.1505C12.3166 13.7599 11.6834 13.7599 11.2929 14.1505L6 19.4434V6ZM4 24.2714V21.4434V5C4 4.44772 4.44772 4 5 4H25C25.5523 4 26 4.44772 26 5V23.4434V25C26 25.5523 25.5523 26 25 26H10.2714L10.271 26.0004H7.443L7.44336 26H5C4.44772 26 4 25.5523 4 25V24.2714ZM9.44336 24H6V22.2714L12 16.2714L14.586 18.8574L9.44336 24ZM12.2714 24H23.7286L18 18.2714L12.2714 24ZM19.5 13C19.0055 13 18.5222 12.8534 18.1111 12.5787C17.7 12.304 17.3795 11.9135 17.1903 11.4567C17.0011 10.9999 16.9516 10.4972 17.048 10.0123C17.1445 9.52732 17.3826 9.08187 17.7322 8.73223C18.0819 8.3826 18.5273 8.1445 19.0123 8.04804C19.4972 7.95157 19.9999 8.00108 20.4567 8.1903C20.9135 8.37952 21.304 8.69995 21.5787 9.11108C21.8534 9.5222 22 10.0055 22 10.5C22 11.163 21.7366 11.7989 21.2678 12.2678C20.7989 12.7366 20.163 13 19.5 13ZM19.5 9.75C19.3517 9.75 19.2067 9.79399 19.0833 9.8764C18.96 9.95881 18.8639 10.0759 18.8071 10.213C18.7503 10.35 18.7355 10.5008 18.7644 10.6463C18.7934 10.7918 18.8648 10.9254 18.9697 11.0303C19.0746 11.1352 19.2082 11.2067 19.3537 11.2356C19.4992 11.2645 19.65 11.2497 19.787 11.1929C19.9241 11.1361 20.0412 11.04 20.1236 10.9167C20.206 10.7933 20.25 10.6483 20.25 10.5C20.2497 10.3012 20.1706 10.1106 20.03 9.96996C19.8894 9.82937 19.6988 9.75027 19.5 9.75Z" fill="#121211"/>
</svg>
